{"title":"Resident Evil-Afterlife-AC3-XviD-BRRip[Eng]2010","uid":5979455,"size":1568693974,"categoryP":"video","categoryS":"movies","magnet":"?xt=urn:btih:246e26b78fde93dfdf8a7ed4ae08b2f509fd63ce&amp;dn=Resident+Evil-Afterlife-AC3-XviD-BRRip%5BEng%5D2010&amp;tr=udp%3A%2F%2Ftracker.openbittorrent.com%3A80&amp;tr=udp%3A%2F%2Fopen.demonii.com%3A1337&amp;tr=udp%3A%2F%2Ftracker.coppersurfer.tk%3A6969&amp;tr=udp%3A%2F%2Fexodus.desync.com%3A6969","seeders":0,"leechers":0,"uploader":"FatFreddy31","files":-1,"time":1290543861,"description":"While still out to destroy the evil Umbrella Corporation, Alice joins a group of survivors who want to relocate to the mysterious but supposedly unharmed safe haven known only as Arcadia..\n &lt;a href=&quot;\nhttp://www.imdb.com/title/tt1220634/&quot; rel=&quot;nofollow&quot; target=&quot;_NEW&quot;&gt;\nhttp://www.imdb.com/title/tt1220634/&lt;/a&gt;\n\nSubtitles (srt) : Dutch, English.\n\nCovers included.\n\nDe wereld wordt nog steeds geteisterd door het virus dat mensen in zombies veranderd. Alice (Milla Jovovich) blijft op haar pad toch steeds meer overlevenden vinden en samen zoeken ze naar een veilige haven. In haar gevecht met de 'Umbrella Corporation' krijgt Alice onverwachte hulp van een oude bekende..\n &lt;a href=&quot;\nhttp://www.moviemeter.nl/film/64859&quot; rel=&quot;nofollow&quot; target=&quot;_NEW&quot;&gt;\nhttp://www.moviemeter.nl/film/64859&lt;/a&gt;\n\nOndertitels (srt) : Engels, Nederlands.\n\nHoesjes bijgevoegd.\n\nGeneral\nComplete name                    : Resident Evil-Afterlife-AC3-XviD-BRRip[Eng]2010\\Resident Evil-Afterlife-AC3-XviD-BRRip[Eng]2010.avi\nFormat                           : AVI\nFormat/Info                      : Audio Video Interleave\nFile size                        : 1.46 GiB\nDuration                         : 1h 36mn\nOverall bit rate                 : 2 158 Kbps\nWriting application              : VirtualDubMod 1.5.4.1 (build 2178/release)\nWriting library                  : VirtualDubMod build 2178/release\nSource                           : Resident.Evil.Afterlife.2010.Bluray.720p.DTS.x264-CHD\n\nVideo\nID                               : 0\nFormat                           : MPEG-4 Visual\nFormat profile                   : Simple@L3\nFormat settings, BVOP            : No\nFormat settings, QPel            : No\nFormat settings, GMC             : No warppoints\nFormat settings, Matrix          : Default (H.263)\nCodec ID                         : XVID\nCodec ID/Hint                    : XviD\nDuration                         : 1h 36mn\nBit rate                         : 1 701 Kbps\nWidth                            : 720 pixels\nHeight                           : 304 pixels\nDisplay aspect ratio             : 2.35:1\nFrame rate                       : 23.976 fps\nResolution                       : 8 bits\nColorimetry                      : 4:2:0\nScan type                        : Progressive\nBits/(Pixel*Frame)               : 0.324\nStream size                      : 1.15 GiB (79%)\nWriting library                  : XviD 1.1.2 (UTC 2006-11-01)\n\nAudio\nID                               : 1\nFormat                           : AC-3\nFormat/Info                      : Audio Coding 3\nCodec ID                         : 2000\nDuration                         : 1h 36mn\nBit rate mode                    : Constant\nBit rate                         : 448 Kbps\nChannel(s)                       : 6 channels\nChannel positions                : Front: L C R, Surround: L R, LFE\nSampling rate                    : 48.0 KHz\nStream size                      : 310 MiB (21%)\nAlignment                        : Split accross interleaves\nInterleave, duration             : 42 ms (1.00 video frame)\nInterleave, preload duration     : 500 ms\n\nThanks to Simply ReleaseS for the Dutch subs.Nice job!","torrent":{"xt":"urn:btih:246e26b78fde93dfdf8a7ed4ae08b2f509fd63ce","amp;dn":"Resident+Evil-Afterlife-AC3-XviD-BRRip%5BEng%5D2010","amp;tr":["udp%3A%2F%2Ftracker.openbittorrent.com%3A80","udp%3A%2F%2Fopen.demonii.com%3A1337","udp%3A%2F%2Ftracker.coppersurfer.tk%3A6969","udp%3A%2F%2Fexodus.desync.com%3A6969"],"infoHash":"246e26b78fde93dfdf8a7ed4ae08b2f509fd63ce","infoHashBuffer":{"type":"Buffer","data":[36,110,38,183,143,222,147,223,223,138,126,212,174,8,178,245,9,253,99,206]},"announce":[],"urlList":[]}}